<svg xmlns="http://www.w3.org/2000/svg" xmlns:xlink="http://www.w3.org/1999/xlink" width="500" zoomAndPan="magnify" viewBox="0 0 375 374.999991" height="500" preserveAspectRatio="xMidYMid meet" version="1.0"><defs><clipPath id="fe5826ef3b"><path d="M 16 18 L 359.59375 18 L 359.59375 361.875 L 16 361.875 Z M 16 18 " clip-rule="nonzero"/></clipPath></defs><g clip-path="url(#fe5826ef3b)"><path fill="#000001" d="M 343.621094 148.957031 C 345.675781 147.820312 347.414062 146.160156 348.851562 144.152344 C 347.289062 140.347656 345.265625 138.890625 343.195312 138.890625 C 340.824219 138.890625 338.183594 140.710938 335.988281 143.03125 C 333.683594 145.464844 331.976562 148.324219 331.53125 150.269531 L 331.515625 150.269531 C 331.40625 150.316406 330.238281 150.097656 330.585938 150.175781 L 330.664062 150.191406 C 336.019531 151.40625 340.289062 150.824219 343.621094 148.957031 M 154.867188 50.117188 C 153.648438 46.371094 150.488281 42.308594 144.40625 38.675781 C 144.277344 39.246094 144.199219 39.84375 144.183594 40.460938 C 143.820312 51.632812 145.8125 57.511719 148.402344 59.867188 C 150.0625 61.367188 152.085938 60.941406 153.476562 59.425781 C 155.246094 57.480469 156.128906 54.035156 154.867188 50.117188 Z M 69.789062 202.398438 C 69.742188 204.535156 69.789062 206.507812 69.945312 208.375 C 77.027344 207.929688 79.601562 206.476562 79.726562 204.882812 C 79.792969 204.042969 78.859375 202.96875 77.53125 202.003906 C 75.9375 200.851562 73.929688 200.046875 72.222656 200.015625 L 72.207031 200.015625 C 70.894531 200 69.835938 200.644531 69.789062 202.398438 Z M 198.605469 305.207031 C 195.90625 303.3125 192.757812 301.273438 189.140625 299.078125 C 185.917969 297.117188 183.785156 297.765625 182.757812 299.457031 C 182.0625 300.578125 181.714844 302.09375 181.699219 303.691406 C 181.683594 305.351562 182.03125 307.058594 182.773438 308.511719 C 184.335938 311.609375 187.988281 313.425781 193.992188 310.390625 C 195.460938 309.648438 197.027344 307.878906 198.511719 305.382812 Z M 117.085938 133.171875 C 120.890625 136.996094 124.511719 139.886719 127.925781 142.003906 L 127.8125 141.390625 C 127.214844 137.675781 127.734375 133.378906 129.757812 128.527344 C 128.808594 128.699219 127.890625 128.90625 126.976562 129.125 C 123.027344 130.136719 119.535156 131.574219 117.085938 133.171875 Z M 101.046875 113.054688 C 101.707031 114.050781 102.371094 115.015625 103.019531 115.964844 C 109.386719 113.386719 117.164062 111.949219 125.378906 111.523438 C 125.078125 106.941406 125.363281 101.980469 126.46875 97.207031 C 127.230469 93.933594 128.382812 90.726562 129.996094 87.773438 L 129.234375 87.488281 C 124.242188 85.796875 118.175781 85.8125 112.628906 87.28125 C 107.175781 88.738281 102.292969 91.566406 99.574219 95.5 C 96.542969 99.910156 96.242188 105.867188 101.046875 113.054688 Z M 170.257812 124.257812 C 169.910156 125.980469 169.421875 127.75 168.804688 129.539062 C 170.96875 129 173.101562 128.242188 175.15625 127.277344 C 173.734375 126.203125 172.089844 125.207031 170.257812 124.257812 Z M 145.574219 172.472656 C 139.886719 166.703125 135.589844 159.117188 132.949219 151.171875 C 132.253906 150.507812 131.621094 149.78125 131.054688 149.019531 C 125.695312 146.730469 119.898438 142.714844 113.6875 136.523438 C 113.464844 136.980469 113.355469 137.4375 113.339844 137.878906 C 113.277344 157.082031 122.410156 169.28125 134.878906 174.9375 C 137.738281 174.558594 140.566406 173.957031 143.253906 173.183594 C 144.042969 172.960938 144.816406 172.722656 145.574219 172.472656 Z M 153.414062 178.664062 C 152.117188 177.90625 150.867188 177.054688 149.667969 176.121094 C 148.023438 176.753906 146.332031 177.324219 144.578125 177.828125 L 144.359375 177.890625 C 147.296875 178.445312 150.347656 178.699219 153.414062 178.664062 Z M 242.457031 156.320312 C 248.746094 155.707031 253.375 152.925781 256.632812 148.894531 C 251.90625 150.015625 248.128906 151.089844 245.015625 152.070312 L 244.734375 152.609375 C 244.019531 153.871094 243.261719 155.105469 242.457031 156.320312 Z M 234.367188 155.988281 C 235.109375 156.117188 235.835938 156.210938 236.53125 156.273438 C 236.957031 155.738281 237.367188 155.183594 237.765625 154.632812 C 236.640625 155.074219 235.628906 155.484375 234.683594 155.863281 Z M 232.691406 160.589844 C 230.761719 160.226562 228.726562 159.734375 226.609375 159.070312 L 225.722656 158.769531 C 221.582031 159.53125 216.242188 159.546875 206.347656 158.613281 C 205.023438 158.488281 204.058594 157.316406 204.167969 156.003906 C 204.296875 154.679688 205.464844 153.714844 206.777344 153.824219 C 211.660156 154.285156 215.339844 154.488281 218.28125 154.488281 C 214.140625 151.328125 210.03125 146.984375 206.746094 142.164062 C 202.824219 157.160156 193.644531 168.21875 182.410156 175.109375 C 180.355469 176.375 178.238281 177.496094 176.058594 178.460938 C 204.484375 178.664062 222.183594 171 232.691406 160.589844 Z M 262.210938 104.316406 C 264.878906 108.457031 266.730469 114.003906 267.535156 120.007812 C 268.261719 125.429688 268.167969 131.242188 267.078125 136.726562 C 266.777344 138.246094 266.398438 139.746094 265.9375 141.199219 C 275.515625 137.832031 280.824219 133.835938 282.753906 129.601562 C 284.902344 124.890625 282.578125 119.582031 277.238281 114.445312 C 273.507812 110.875 268.355469 107.414062 262.210938 104.316406 Z M 249.648438 115.882812 C 252.015625 111.917969 253.503906 107.335938 254.085938 102.609375 C 253.3125 102.183594 252.507812 101.898438 251.667969 101.789062 C 241.667969 100.460938 234.445312 100.808594 229.292969 102.167969 C 232.390625 102.089844 235.757812 102.183594 239.4375 102.453125 C 243.609375 102.769531 247.625 108.078125 249.648438 115.882812 Z M 258.242188 106.863281 C 257.34375 111.035156 255.792969 115.046875 253.613281 118.617188 C 252.777344 119.992188 251.828125 121.304688 250.800781 122.554688 C 251.179688 126.457031 251.132812 130.722656 250.5 135.148438 C 249.980469 138.796875 249.046875 142.542969 247.640625 146.257812 C 250.011719 145.578125 252.695312 144.882812 255.761719 144.152344 C 257.277344 143.789062 258.734375 143.425781 260.125 143.03125 C 261.101562 140.773438 261.847656 138.339844 262.335938 135.828125 C 263.332031 130.847656 263.410156 125.570312 262.746094 120.671875 C 262.035156 115.253906 260.457031 110.339844 258.242188 106.863281 Z M 192.742188 83.347656 C 196.378906 72.382812 207.1875 64.039062 229.910156 64.796875 C 244.464844 65.285156 253.535156 74.355469 257.261719 85.765625 C 258.480469 89.527344 259.128906 93.539062 259.175781 97.570312 C 268.039062 101.457031 275.484375 106.070312 280.585938 110.984375 C 287.460938 117.574219 290.257812 124.78125 287.144531 131.609375 C 284.425781 137.566406 277.015625 142.984375 263.535156 147.0625 C 262.652344 148.753906 261.625 150.363281 260.441406 151.832031 C 255.667969 157.792969 248.574219 161.632812 238.679688 161.269531 C 226.8125 174.9375 205.023438 185.113281 167.554688 183.027344 C 166.117188 182.949219 164.710938 182.757812 163.335938 182.488281 C 161.691406 182.804688 160.050781 183.042969 158.40625 183.199219 C 150.078125 184.039062 141.765625 182.964844 134.371094 179.929688 L 134.183594 179.851562 C 132.144531 180.070312 130.089844 180.199219 128.035156 180.199219 C 122.316406 180.230469 116.59375 179.375 111.316406 177.371094 C 97.773438 172.25 87.234375 159.796875 87.125 135.761719 C 87.09375 127.800781 91.5625 121.984375 98.628906 118.035156 L 97.046875 115.710938 C 90.933594 106.5625 91.5 98.707031 95.625 92.765625 C 99.039062 87.835938 104.917969 84.359375 111.410156 82.621094 C 117.8125 80.914062 124.890625 80.914062 130.800781 82.921875 C 131.449219 83.144531 132.082031 83.378906 132.695312 83.648438 C 137.484375 77.5 144.925781 73.078125 156.003906 72.414062 C 164.300781 71.921875 172.3125 72.492188 179.011719 74.5625 C 184.148438 76.140625 188.523438 78.609375 191.75 82.148438 C 192.097656 82.542969 192.429688 82.9375 192.742188 83.347656 Z M 198.132812 104.824219 C 199.144531 107.839844 200.472656 110.734375 202.003906 113.339844 C 202.210938 112.992188 202.429688 112.644531 202.667969 112.296875 C 201.863281 109.34375 200.519531 107.066406 198.75 105.375 Z M 208.703125 121.746094 C 210.648438 123.4375 212.621094 124.542969 214.472656 124.84375 C 213.949219 123.484375 213.523438 122 213.238281 120.46875 C 212.765625 117.859375 212.621094 115.03125 213.097656 112.25 C 213.238281 111.398438 213.445312 110.558594 213.714844 109.722656 C 211.578125 110.605469 209.859375 111.695312 208.5 112.929688 C 208.277344 113.136719 208.054688 113.339844 207.851562 113.5625 L 207.976562 114.382812 C 208.355469 116.894531 208.578125 119.359375 208.703125 121.746094 Z M 218.894531 123.644531 C 221.457031 121.445312 223.445312 116.359375 224.160156 107.304688 C 222.65625 107.460938 221.265625 107.652344 219.972656 107.90625 C 218.832031 109.484375 218.183594 111.253906 217.867188 113.054688 C 217.488281 115.253906 217.601562 117.527344 217.980469 119.613281 C 218.25 121.097656 218.5625 122.457031 218.894531 123.644531 Z M 216.90625 129.679688 C 216.445312 129.742188 215.988281 129.773438 215.515625 129.773438 C 213.316406 129.773438 211.027344 129.015625 208.78125 127.671875 C 208.703125 130.265625 208.5 132.777344 208.152344 135.195312 C 212.511719 143.441406 219.84375 150.871094 226.101562 153.730469 C 228.394531 153.191406 230.367188 152.386719 232.863281 151.375 C 235.171875 150.445312 237.890625 149.335938 241.605469 148.089844 C 243.769531 143.570312 245.082031 138.921875 245.726562 134.453125 C 246.089844 131.890625 246.25 129.394531 246.21875 126.992188 C 239.738281 132.066406 230.859375 134.5625 219.65625 132.507812 C 219.070312 132.414062 218.011719 131.355469 216.90625 129.679688 Z M 228.992188 107.003906 C 228.09375 118.445312 225.136719 124.988281 221.1875 127.910156 C 232.027344 129.726562 240.230469 126.582031 245.742188 120.957031 L 245.585938 119.976562 C 244.320312 112.628906 241.621094 107.476562 239.058594 107.289062 C 235.363281 107.003906 232.011719 106.910156 228.992188 107.003906 Z M 227.902344 93.273438 C 228.519531 94.472656 228.945312 95.800781 229.136719 97.285156 C 232.359375 96.542969 236.167969 96.132812 240.65625 96.148438 C 236.546875 95.027344 232.265625 94.046875 227.902344 93.273438 Z M 202.839844 91.203125 C 200.882812 91.46875 198.890625 91.832031 196.867188 92.261719 C 197.136719 93.523438 197.328125 94.867188 197.40625 96.273438 C 197.453125 97.046875 197.46875 97.839844 197.453125 98.660156 C 199.144531 99.511719 200.691406 100.589844 202.066406 101.914062 C 203.867188 103.652344 205.339844 105.785156 206.414062 108.394531 C 209.097656 106.324219 212.65625 104.679688 217.269531 103.589844 C 219.007812 101.695312 221.34375 100.050781 224.410156 98.785156 C 224.347656 97.425781 224.03125 96.289062 223.527344 95.359375 C 222.71875 93.902344 221.363281 92.828125 219.589844 92.070312 C 214.0625 91.421875 208.433594 91.105469 202.839844 91.203125 Z M 202.210938 86.429688 C 206.492188 85.84375 210.585938 85.640625 214.21875 85.957031 C 216.652344 86.175781 218.878906 86.636719 220.839844 87.363281 C 232.058594 88.703125 242.882812 91.359375 252.445312 94.867188 L 254.277344 95.5625 C 254.085938 92.71875 253.550781 89.90625 252.679688 87.265625 C 249.550781 77.660156 241.953125 70.011719 229.769531 69.617188 C 208.71875 68.921875 199.398438 76.742188 196.851562 86.683594 C 198.621094 86.539062 200.40625 86.476562 202.210938 86.429688 Z M 191.273438 93.585938 C 188.730469 94.265625 186.234375 95.027344 183.816406 95.832031 C 186.46875 95.832031 189.03125 96.054688 191.449219 96.558594 C 191.351562 95.578125 191.289062 94.582031 191.273438 93.585938 Z M 153.933594 118.695312 C 152.8125 121.066406 152.039062 123.4375 151.578125 125.730469 C 154.410156 126.929688 157.0625 128.542969 159.417969 130.644531 C 160.664062 130.660156 161.945312 130.613281 163.242188 130.5 L 163.257812 130.5 C 164.472656 127.71875 165.3125 124.875 165.722656 122.238281 C 163.511719 121.367188 161.125 120.578125 158.613281 119.867188 C 157.109375 119.441406 155.53125 119.042969 153.933594 118.695312 Z M 158.832031 111 C 157.933594 112.109375 157.125 113.214844 156.398438 114.320312 C 157.585938 114.605469 158.753906 114.90625 159.90625 115.222656 C 162.023438 115.804688 164.0625 116.46875 166.007812 117.179688 C 165.832031 114.621094 165.058594 112.789062 163.636719 112.3125 C 161.960938 111.761719 160.367188 111.316406 158.832031 111 Z M 151.375 113.261719 C 151.960938 112.28125 152.589844 111.316406 153.285156 110.339844 C 151.738281 110.304688 150.285156 110.417969 148.957031 110.667969 C 148.308594 111.300781 147.660156 111.933594 147.058594 112.550781 C 148.515625 112.753906 149.953125 112.992188 151.375 113.261719 Z M 146.964844 124.179688 C 147.441406 122.0625 148.117188 119.914062 149.066406 117.75 C 147.171875 117.417969 145.226562 117.148438 143.285156 116.925781 C 142.984375 119.1875 142.621094 121.128906 142.210938 122.804688 L 142.476562 123.34375 C 143.980469 123.515625 145.480469 123.800781 146.964844 124.179688 Z M 151.992188 138.195312 C 152.449219 139.855469 153.066406 141.40625 153.808594 142.84375 C 155.6875 141.46875 157.363281 139.777344 158.832031 137.929688 L 159.132812 137.53125 C 158.5625 136.757812 157.949219 136.03125 157.300781 135.351562 C 155.183594 135.210938 153.144531 134.894531 151.230469 134.421875 C 151.390625 135.730469 151.644531 136.996094 151.992188 138.195312 Z M 149.621094 145.246094 C 148.6875 143.476562 147.914062 141.546875 147.34375 139.507812 C 146.746094 137.359375 146.363281 135.066406 146.238281 132.699219 C 143.835938 131.574219 141.765625 130.121094 140.171875 128.367188 L 139.886719 128.84375 C 138.226562 131.417969 136.457031 132.460938 134.734375 132.269531 C 134.640625 136.617188 135.226562 141.261719 136.410156 145.859375 C 138.589844 146.476562 140.660156 146.730469 142.621094 146.714844 C 145.132812 146.683594 147.472656 146.144531 149.621094 145.246094 Z M 159.355469 149.796875 C 160.824219 150.964844 162.402344 151.800781 163.984375 152.261719 L 164.300781 152.164062 C 163.890625 148.230469 162.988281 144.847656 161.707031 142.003906 C 160.144531 143.839844 158.375 145.496094 156.429688 146.902344 C 157.332031 147.992188 158.328125 148.972656 159.355469 149.796875 Z M 156.414062 153.589844 L 156.382812 153.554688 C 154.898438 152.386719 153.507812 150.964844 152.242188 149.335938 C 149.367188 150.679688 146.160156 151.453125 142.667969 151.503906 L 142.304688 151.503906 C 143.171875 151.867188 144.089844 152.179688 145.039062 152.449219 C 148.578125 153.460938 152.496094 153.855469 156.414062 153.589844 Z M 164.554688 157.316406 L 164 157.222656 C 157.238281 158.929688 149.953125 158.882812 143.726562 157.113281 C 142.414062 156.734375 141.152344 156.289062 139.933594 155.753906 C 142.574219 161.441406 146.160156 166.625 150.519531 170.589844 C 158.722656 167.003906 164.441406 161.980469 164.554688 157.316406 Z M 178.222656 138.941406 C 178.804688 136.378906 179.203125 134.007812 179.4375 131.828125 C 179.25 131.496094 179.027344 131.179688 178.804688 130.847656 C 174.886719 132.917969 170.667969 134.246094 166.464844 134.925781 C 165.992188 135.828125 165.484375 136.710938 164.949219 137.582031 C 166.890625 141.074219 168.296875 145.292969 168.945312 150.347656 C 171.175781 149.257812 173.210938 147.882812 174.984375 146.238281 C 175.425781 145.828125 175.851562 145.417969 176.230469 145.007812 C 177.003906 143.300781 177.683594 141.292969 178.222656 138.941406 Z M 184.496094 127.121094 C 184.511719 128.257812 184.464844 129.441406 184.382812 130.675781 C 186.882812 135.777344 185.996094 141.5625 180.246094 147.804688 C 177.667969 153.003906 174.128906 155.910156 170.289062 157 C 169.988281 157.082031 169.6875 157.160156 169.386719 157.222656 C 169.371094 163.242188 163.445312 169.421875 154.773438 173.863281 C 157.425781 175.585938 160.300781 176.863281 163.382812 177.589844 C 169.121094 176.390625 174.761719 174.195312 179.914062 171.019531 C 191.335938 164.015625 200.40625 152.246094 203.140625 135.96875 C 202.890625 135.449219 202.652344 134.925781 202.414062 134.40625 C 200.488281 129.996094 199.414062 125.445312 199.679688 121.195312 C 199.726562 120.453125 199.808594 119.738281 199.933594 119.011719 C 199.507812 118.398438 199.082031 117.78125 198.667969 117.132812 C 197.4375 115.1875 196.316406 113.101562 195.335938 110.890625 L 195.257812 111.128906 C 193.140625 118 189.265625 123.28125 184.496094 127.121094 Z M 173.875 112.359375 C 172.121094 110.890625 169.988281 109.847656 167.601562 109.167969 C 169.894531 111.222656 170.953125 114.855469 170.84375 119.1875 C 174.253906 120.78125 177.210938 122.617188 179.550781 124.640625 C 179.058594 118.964844 177.003906 114.96875 173.875 112.359375 Z M 166.101562 103.90625 C 170.257812 104.632812 173.972656 106.183594 176.957031 108.664062 C 180.417969 111.554688 182.867188 115.648438 183.925781 121.128906 C 186.882812 118.113281 189.234375 114.351562 190.675781 109.738281 C 191.527344 107.003906 192.082031 104.476562 192.378906 102.136719 L 192.285156 101.757812 C 189.613281 100.953125 186.613281 100.636719 183.4375 100.667969 C 178.238281 100.714844 172.597656 101.726562 167.222656 103.179688 C 166.828125 103.417969 166.449219 103.667969 166.101562 103.90625 Z M 144.152344 105.929688 C 145.480469 105.535156 146.808594 105.1875 148.117188 104.886719 C 159.542969 94.820312 174.207031 89.417969 189.726562 87.363281 C 189.265625 86.667969 188.761719 86.019531 188.191406 85.402344 C 185.585938 82.542969 181.933594 80.519531 177.605469 79.175781 C 171.492188 77.28125 164.0625 76.773438 156.289062 77.234375 C 147.265625 77.769531 141.085938 81.230469 137.011719 86.113281 C 141.480469 89.433594 144.375 94.566406 144.261719 101.742188 C 144.230469 103.210938 144.199219 104.601562 144.152344 105.929688 Z M 126.453125 119.0625 C 121.585938 121.984375 117.050781 125.367188 113.195312 129.015625 L 113.875 129.789062 C 116.941406 127.546875 121.113281 125.648438 125.824219 124.449219 C 126.503906 124.273438 127.195312 124.117188 127.890625 123.976562 L 127.578125 123.074219 C 127.148438 121.839844 126.769531 120.5 126.453125 119.0625 Z M 131.605469 116.199219 L 130.863281 116.59375 C 131.132812 118.050781 131.464844 119.410156 131.84375 120.640625 C 132.378906 119.09375 133.027344 117.605469 133.785156 116.246094 Z M 130.46875 111.378906 C 133.359375 109.925781 136.316406 108.648438 139.269531 107.558594 C 139.347656 105.738281 139.414062 103.796875 139.445312 101.695312 C 139.523438 96.449219 137.46875 92.65625 134.261719 90.144531 C 132.855469 92.6875 131.84375 95.453125 131.179688 98.296875 C 130.152344 102.675781 129.914062 107.210938 130.199219 111.378906 Z M 110.132812 125.429688 C 113.496094 122.253906 117.289062 119.296875 121.351562 116.644531 C 115.675781 117.195312 110.382812 118.285156 105.878906 119.945312 C 107.320312 121.890625 108.742188 123.722656 110.132812 125.429688 Z M 100.792969 150.601562 C 100.699219 151.929688 99.542969 152.925781 98.214844 152.828125 C 96.890625 152.734375 95.894531 151.582031 95.972656 150.253906 C 96.511719 142.921875 100.601562 135.527344 106.734375 128.84375 C 104.980469 126.722656 103.195312 124.417969 101.375 121.9375 C 95.546875 125.097656 91.894531 129.632812 91.910156 135.746094 C 91.992188 157.332031 101.1875 168.410156 112.976562 172.867188 C 117.066406 174.414062 121.492188 175.1875 125.980469 175.363281 C 115.535156 168 108.457031 155.578125 108.519531 137.863281 C 108.519531 136.253906 109.199219 134.625 110.382812 133.078125 L 109.816406 132.445312 C 104.648438 138.195312 101.234375 144.453125 100.792969 150.601562 Z M 191.085938 360.5625 C 190.261719 361.605469 188.746094 361.796875 187.703125 360.972656 C 186.660156 360.152344 186.46875 358.632812 187.292969 357.589844 C 191.828125 351.761719 196 346.972656 199.664062 342.769531 C 204.214844 337.539062 207.976562 333.226562 210.285156 329.449219 C 214.582031 322.417969 213.554688 316.695312 202.507812 308.066406 C 200.597656 311.230469 198.402344 313.550781 196.15625 314.6875 C 186.992188 319.335938 181.160156 316 178.476562 310.675781 C 177.382812 308.527344 176.863281 306.03125 176.894531 303.644531 C 176.925781 301.195312 177.511719 298.808594 178.664062 296.929688 C 181.066406 292.976562 185.507812 291.175781 191.667969 294.9375 C 195.066406 297.007812 198.085938 298.949219 200.753906 300.800781 C 202.476562 296.582031 203.757812 291.429688 204.230469 285.945312 C 204.878906 278.28125 203.914062 270.015625 200.265625 262.828125 C 197.625 257.613281 193.550781 252.933594 187.640625 249.425781 C 169.5 238.664062 146.113281 239.25 124.90625 239.773438 C 118.710938 239.929688 112.707031 240.070312 107.019531 239.945312 C 85.621094 239.441406 69.046875 235.0625 65.617188 213.160156 C 62.03125 213.273438 57.84375 213.175781 52.976562 212.796875 C 48.691406 212.464844 44.820312 211.359375 41.328125 209.574219 C 31.230469 204.4375 24.46875 193.851562 20.535156 181.097656 C 16.679688 168.632812 15.507812 154.0625 16.535156 140.582031 C 17.46875 128.414062 20.1875 117.085938 24.34375 108.914062 L 26.207031 105.25 C 45.121094 67.941406 72.902344 13.125 129.015625 27.503906 C 134.164062 28.832031 138.542969 30.394531 142.242188 32.117188 C 146.144531 26.855469 153.714844 23.441406 163.097656 21.386719 C 174.097656 18.988281 187.765625 18.402344 200.753906 18.828125 C 218.234375 19.414062 234.601562 21.863281 241.699219 24.234375 L 250.832031 27.28125 C 303.625 44.933594 304.558594 45.234375 348.15625 87.488281 C 354.667969 93.792969 358.871094 107.019531 359.265625 120.039062 C 359.46875 126.835938 358.664062 133.613281 356.609375 139.382812 C 355.898438 141.390625 355.03125 143.285156 354.003906 145.023438 C 355.710938 150.441406 356.769531 158.203125 356.769531 169.011719 C 356.769531 221.964844 322.9375 227.636719 281.535156 234.574219 C 275.515625 235.585938 269.320312 236.628906 262.96875 237.859375 L 262.636719 237.90625 C 260.867188 238.082031 253.171875 238.507812 245.175781 238.902344 C 236.152344 239.34375 226.734375 239.757812 224.917969 239.757812 C 223.589844 239.757812 222.5 238.679688 222.5 237.339844 C 222.5 236.011719 223.574219 234.921875 224.917969 234.921875 C 226.828125 234.921875 236.121094 234.511719 244.9375 234.082031 C 253.28125 233.671875 261.199219 233.246094 262.003906 233.136719 L 262.035156 233.136719 C 268.324219 231.902344 274.613281 230.859375 280.730469 229.832031 C 319.917969 223.257812 351.933594 217.902344 351.933594 169.027344 C 351.933594 160.574219 351.378906 154.28125 350.449219 149.699219 C 349.121094 151.058594 347.617188 152.214844 345.945312 153.144531 C 341.597656 155.5625 336.179688 156.367188 329.574219 154.867188 L 329.429688 154.835938 C 326.886719 154.1875 326.160156 152.039062 326.808594 149.195312 L 326.808594 149.179688 C 327.425781 146.492188 329.589844 142.730469 332.480469 139.699219 C 335.46875 136.539062 339.308594 134.054688 343.179688 134.054688 C 346.195312 134.054688 349.121094 135.527344 351.476562 139.320312 C 351.679688 138.828125 351.871094 138.324219 352.058594 137.800781 C 353.910156 132.601562 354.636719 126.425781 354.445312 120.199219 C 354.082031 108.332031 350.433594 96.449219 344.789062 90.964844 C 301.984375 49.484375 301.082031 49.167969 249.300781 31.863281 L 240.164062 28.816406 C 233.417969 26.554688 217.617188 24.21875 200.597656 23.648438 C 187.972656 23.238281 174.730469 23.804688 164.109375 26.113281 C 156.179688 27.851562 149.808594 30.507812 146.554688 34.394531 C 154.011719 38.785156 157.902344 43.890625 159.449219 48.613281 C 161.3125 54.335938 159.828125 59.582031 157.03125 62.648438 C 153.855469 66.140625 149.113281 67.023438 145.148438 63.421875 C 141.671875 60.246094 138.9375 53.117188 139.363281 40.304688 C 139.410156 38.929688 139.632812 37.617188 140.027344 36.382812 C 136.648438 34.835938 132.601562 33.398438 127.8125 32.164062 C 75.445312 18.734375 48.707031 71.496094 30.503906 107.414062 L 28.640625 111.097656 C 24.769531 118.710938 22.222656 129.394531 21.339844 140.929688 C 20.359375 153.871094 21.464844 167.808594 25.117188 179.675781 C 28.6875 191.242188 34.675781 200.773438 43.492188 205.261719 C 46.433594 206.761719 49.703125 207.695312 53.308594 207.976562 C 57.9375 208.324219 61.839844 208.484375 65.078125 208.484375 C 64.953125 206.539062 64.90625 204.46875 64.953125 202.273438 C 65.078125 197.011719 68.320312 195.082031 72.300781 195.179688 L 72.332031 195.179688 C 75.019531 195.257812 78.039062 196.410156 80.328125 198.070312 C 82.902344 199.933594 84.707031 202.527344 84.5 205.214844 C 84.246094 208.578125 80.582031 211.769531 70.5 212.828125 C 73.898438 231 88.417969 234.683594 107.082031 235.125 C 112.660156 235.253906 118.617188 235.109375 124.746094 234.953125 C 146.601562 234.398438 170.730469 233.796875 190.042969 245.269531 C 196.820312 249.285156 201.480469 254.65625 204.515625 260.664062 C 208.609375 268.738281 209.699219 277.902344 208.988281 286.355469 C 208.433594 292.789062 206.839844 298.855469 204.707031 303.707031 C 219.179688 314.671875 220.335938 322.148438 214.34375 331.960938 C 211.800781 336.132812 207.945312 340.558594 203.253906 345.945312 C 199.601562 350.195312 195.382812 355.046875 191.085938 360.5625 Z M 191.085938 360.5625 " fill-opacity="1" fill-rule="nonzero"/></g></svg>